<svg width="252" height="396" viewBox="0 0 252 396" fill="none" xmlns="http://www.w3.org/2000/svg">
<path fill-rule="evenodd" clip-rule="evenodd" d="M54.5256 42.2507C25.0843 46.1205 1.74815 99.2975 101.695 153C104.678 76.9216 90.6573 37.5005 54.5256 42.2507Z" fill="#FFC81A"/>
<path fill-rule="evenodd" clip-rule="evenodd" d="M9.44123 145.345C-12.537 155.014 1.19872 202.085 78.9741 222.825C81.3861 161.309 35.9396 133.688 9.44123 145.345Z" fill="#FFC81A"/>
<path fill-rule="evenodd" clip-rule="evenodd" d="M192.617 182.49C200.142 159.689 162.171 130.372 94.7076 174.281C138.801 217.244 183.544 209.981 192.617 182.49Z" fill="#FFC81A"/>
<path fill-rule="evenodd" clip-rule="evenodd" d="M220.698 12.0616C204.591 -14.656 143.552 -2.03889 129.733 101.63C209.407 94.5282 240.118 44.2742 220.698 12.0616Z" fill="#FFC81A"/>
<path fill-rule="evenodd" clip-rule="evenodd" d="M70.3343 302.208H70.3465C71.0188 302.201 71.5589 301.65 71.5522 300.978C71.5486 300.595 71.3263 262.091 83.4672 212.642C90.5929 183.621 100.52 156.562 112.972 132.219C128.526 101.816 148.085 75.5845 171.109 54.2542C171.602 53.7975 171.632 53.0266 171.174 52.5328C170.717 52.0401 169.946 52.0103 169.453 52.4676C146.211 74.0007 126.472 100.472 110.786 131.146C98.246 155.667 88.2534 182.913 81.0857 212.128C68.8833 261.861 69.1128 300.616 69.1158 301.002C69.1232 301.67 69.667 302.208 70.3343 302.208Z" fill="#141414"/>
<path d="M212.333 207.893C208.624 208.764 205.567 212.712 206.438 216.422L206.438 216.423C195.44 221.179 177.071 230.031 144.898 251.274C102.074 279.549 76.7515 317.297 63.0493 343.983C48.2001 372.903 43.4053 395.476 43.358 395.7C43.3461 395.759 43.3439 395.816 43.3407 395.874L45.9561 395.26C47.0128 390.761 52.2246 370.379 65.2536 345.021C78.8225 318.617 103.886 281.272 146.241 253.306C178.25 232.173 196.493 223.379 207.412 218.656C208.962 220.989 211.845 222.237 214.731 221.559C218.44 220.688 220.996 217.596 220.124 213.887C219.253 210.177 216.042 207.021 212.333 207.893Z" fill="#141414"/>
</svg>
