<svg width="1130" height="1629" viewBox="0 0 1130 1629" fill="none" xmlns="http://www.w3.org/2000/svg">
<mask id="mask0" mask-type="alpha" maskUnits="userSpaceOnUse" x="0" y="0" width="1130" height="1629">
<rect width="1130" height="1629" fill="#C4C4C4"/>
</mask>
<g mask="url(#mask0)">
<path d="M333.964 873.665C165.604 991.769 1.47904 1509.76 1.47904 1509.76C1.47904 1509.76 552.686 1847.2 918.442 1324.5C1016.43 1144.7 912.979 1022.49 925.444 960.841C942.228 877.848 1046.71 853.731 1084.94 768.579C1145.21 634.317 1092.64 482.718 1075.95 399.476C1061.25 326.182 1009.64 284.13 941.548 166.318C887.3 72.4614 688.826 -28.6641 669.237 122.919C653.785 242.477 766.005 365.99 731.189 428.319C708.175 469.517 602.32 494.532 564.177 575.58C515.093 679.878 623.741 740.461 567.147 813.147C522.263 870.788 417.577 826.452 333.964 873.665Z" fill="#FEF8EE"/>
</g>
</svg>
