<svg width="1241" height="1598" viewBox="0 0 1241 1598" fill="none" xmlns="http://www.w3.org/2000/svg">
<mask id="mask0" mask-type="alpha" maskUnits="userSpaceOnUse" x="0" y="0" width="1241" height="1598">
<rect width="1241" height="1598" fill="white"/>
</mask>
<g mask="url(#mask0)">
<path d="M920.208 709.05C1107.43 792.511 1199.18 1198.23 1199.18 1198.23C1199.18 1198.23 741.108 1561.6 493.298 1288.44C408.013 1189.01 421.659 1002.36 389.2 948.897C345.5 876.926 240.372 886.224 176.043 818.751C74.6177 712.364 172.748 554.551 160.03 472.194C148.834 399.679 81.7439 346.084 105.003 216.039C123.536 112.436 273.438 -41.661 342.986 93.1481C397.84 199.475 335.564 348.199 388.994 395.513C424.311 426.786 531.015 417.908 593.876 481.594C674.768 563.551 594.48 652.759 671.628 703.085C732.812 742.993 826.619 690.571 920.208 709.05Z" fill="#E9F3FF" stroke="#E9F3FF" stroke-width="11"/>
<path d="M873.208 853.05C1060.43 936.511 1152.18 1342.23 1152.18 1342.23C1152.18 1342.23 694.108 1705.6 446.298 1432.44C361.013 1333.01 374.659 1146.36 342.2 1092.9C298.5 1020.93 193.372 1030.22 129.043 962.751C27.6177 856.364 125.748 698.551 113.03 616.194C101.834 543.679 34.7439 490.084 58.0034 360.039C76.5358 256.436 226.438 102.339 295.986 237.148C350.84 343.475 288.564 492.199 341.994 539.513C377.311 570.786 484.015 561.908 546.876 625.594C627.768 707.551 547.48 796.759 624.628 847.085C685.812 886.993 779.619 834.571 873.208 853.05Z" stroke="#E9F3FF" stroke-width="11"/>
</g>
</svg>
